# xmcd
#
# Track frame offsets:
#	150
#	22194
#	39463
#	59418
#	79941
#	95655
#	113555
#	131853
#	150595
#	170029
#	186582
#	207242
#	221045
#
# Disc length: 3154 seconds
#
# Revision: 0
# Processed by: cddbd v1.5.2PL0 Copyright (c) Steve Scherf et al.
# Submitted via: audiograbber 1.83.01
#
DISCID=c30c500d
DTITLE=Mississippi Kings - Jumper On The Line
DYEAR=2017
DGENRE=Blues
TTITLE0=Boogie Disease
TTITLE1=Loving And Leaving
TTITLE2=I Heard The Angels Singin
TTITLE3=Alabama Train
TTITLE4=Love Me
TTITLE5=The First Time
TTITLE6=Going Upside Your Head
TTITLE7=Hear Me Calling
TTITLE8=Pawnshop Bound
TTITLE9=Grinning In Your Face
TTITLE10=My Destiny
TTITLE11=When Your Way Gets Dark
TTITLE12=Jumper On The Line
EXTD=
EXTT0=
EXTT1=
EXTT2=
EXTT3=
EXTT4=
EXTT5=
EXTT6=
EXTT7=
EXTT8=
EXTT9=
EXTT10=
EXTT11=
EXTT12=
PLAYORDER=
